# WaveFront *.obj file (generated by Autodesk ATF)

mtllib 72a354a8-3148-4919-a7a7-712efdfb359e.mtl

g Body1

v 18.544608 60.120517 6.000000
v 18.544608 4.240517 6.000000
v 18.544608 4.240517 1.600000
v 18.544608 60.120517 1.600000
v 41.085949 4.240517 6.000000
v 41.085949 60.120517 6.000000
v 41.085949 60.120517 1.600000
v 41.085949 4.240517 1.600000
v 43.192683 4.240517 1.600000
v 43.192683 4.240517 0.000000
v 6.192683 4.240517 0.000000
v 6.192683 4.240517 1.600000
v 43.192683 60.120517 1.600000
v 6.192683 60.120517 1.600000
v 43.192683 2.700515 6.000000
v 43.192683 60.700516 6.000000
v 6.192683 60.700516 6.000000
v 6.192683 2.700515 6.000000
v 6.192683 60.120517 0.000000
v 43.192683 60.120517 0.000000
v 43.192683 2.700515 -5.000000
v 6.192683 2.700515 -5.000000
v 43.192683 60.700516 -5.000000
v 6.192683 60.700516 -5.000000
vt 0.000000 0.500000 0.000000
vt -5.588000 0.500000 0.000000
vt 0.000000 0.060000 0.000000
vt -5.588000 0.060000 0.000000
vt -0.000000 0.500000 0.000000
vt -5.588000 0.500000 0.000000
vt -0.000000 0.060000 0.000000
vt -5.588000 0.060000 0.000000
vt -0.000000 0.000000 0.000000
vt 0.160000 0.000000 0.000000
vt 0.000000 0.210673 0.000000
vt 0.000000 2.464808 0.000000
vt -0.440000 2.464808 0.000000
vt 0.160000 3.700000 0.000000
vt 0.000000 3.700000 0.000000
vt -0.440000 0.210673 0.000000
vt 5.588000 0.210673 0.000000
vt 0.000000 0.210673 0.000000
vt 5.588000 0.000000 0.000000
vt -0.000000 0.000000 0.000000
vt 0.000000 2.464808 0.000000
vt 5.588000 2.464808 0.000000
vt 0.000000 3.700000 0.000000
vt 5.588000 3.700000 0.000000
vt 5.800000 0.000000 0.000000
vt 0.154000 0.210673 0.000000
vt 0.000000 0.000000 0.000000
vt 0.154000 2.464808 0.000000
vt 0.000000 3.700000 0.000000
vt 5.800000 3.700000 0.000000
vt 5.742000 2.464808 0.000000
vt 5.742000 0.210673 0.000000
vt 0.160000 3.700000 0.000000
vt 0.000000 3.700000 0.000000
vt 0.160000 2.464808 0.000000
vt 0.000000 0.000000 0.000000
vt 0.160000 0.210673 0.000000
vt 0.160000 0.000000 0.000000
vt 0.600000 0.210673 0.000000
vt 0.600000 2.464808 0.000000
vt 0.000000 0.000000 0.000000
vt 5.588000 0.000000 0.000000
vt 0.000000 3.700000 0.000000
vt 5.588000 3.700000 0.000000
vt 0.000000 0.000000 0.000000
vt 1.100000 0.000000 0.000000
vt 0.000000 3.700000 0.000000
vt 1.100000 3.700000 0.000000
vt 0.000000 0.000000 0.000000
vt 5.800000 0.000000 0.000000
vt 0.000000 3.700000 0.000000
vt 5.800000 3.700000 0.000000
vt 0.000000 0.000000 0.000000
vt 1.100000 0.000000 0.000000
vt 0.000000 3.700000 0.000000
vt 1.100000 3.700000 0.000000
vt -2.746000 -0.050000 0.000000
vt 2.900000 -0.550000 0.000000
vt 2.842000 -0.050000 0.000000
vt 2.900000 0.550000 0.000000
vt 2.842000 0.110000 0.000000
vt -2.746000 0.110000 0.000000
vt -2.900000 0.550000 0.000000
vt -2.900000 -0.550000 0.000000
vt -0.050000 2.842000 0.000000
vt -0.550000 2.900000 0.000000
vt -0.050000 -2.746000 0.000000
vt -0.550000 -2.900000 0.000000
vt 0.550000 -2.900000 0.000000
vt 0.550000 2.900000 0.000000
vt 0.110000 2.842000 0.000000
vt 0.110000 -2.746000 0.000000
vn 0.100000 0.000000 0.000000
vn 0.100000 0.000000 0.000000
vn 0.100000 0.000000 0.000000
vn 0.100000 0.000000 0.000000
vn -0.100000 0.000000 0.000000
vn -0.100000 0.000000 0.000000
vn -0.100000 0.000000 0.000000
vn -0.100000 0.000000 0.000000
vn 0.000000 0.100000 0.000000
vn 0.000000 0.100000 0.000000
vn 0.000000 0.100000 0.000000
vn 0.000000 0.100000 0.000000
vn 0.000000 0.100000 0.000000
vn 0.000000 0.100000 0.000000
vn 0.000000 0.100000 0.000000
vn 0.000000 0.100000 0.000000
vn 0.000000 0.000000 -0.100000
vn 0.000000 0.000000 -0.100000
vn 0.000000 0.000000 -0.100000
vn 0.000000 0.000000 -0.100000
vn 0.000000 0.000000 -0.100000
vn 0.000000 0.000000 -0.100000
vn 0.000000 0.000000 -0.100000
vn 0.000000 0.000000 -0.100000
vn 0.000000 0.000000 0.100000
vn 0.000000 0.000000 0.100000
vn 0.000000 0.000000 0.100000
vn 0.000000 0.000000 0.100000
vn 0.000000 0.000000 0.100000
vn 0.000000 0.000000 0.100000
vn 0.000000 0.000000 0.100000
vn 0.000000 0.000000 0.100000
vn 0.000000 -0.100000 0.000000
vn 0.000000 -0.100000 0.000000
vn 0.000000 -0.100000 0.000000
vn 0.000000 -0.100000 0.000000
vn 0.000000 -0.100000 0.000000
vn 0.000000 -0.100000 0.000000
vn 0.000000 -0.100000 0.000000
vn 0.000000 -0.100000 0.000000
vn 0.000000 0.000000 0.100000
vn 0.000000 0.000000 0.100000
vn 0.000000 0.000000 0.100000
vn 0.000000 0.000000 0.100000
vn 0.000000 -0.100000 0.000000
vn 0.000000 -0.100000 0.000000
vn 0.000000 -0.100000 0.000000
vn 0.000000 -0.100000 0.000000
vn 0.000000 0.000000 -0.100000
vn 0.000000 0.000000 -0.100000
vn 0.000000 0.000000 -0.100000
vn 0.000000 0.000000 -0.100000
vn 0.000000 0.100000 0.000000
vn 0.000000 0.100000 0.000000
vn 0.000000 0.100000 0.000000
vn 0.000000 0.100000 0.000000
vn 0.100000 0.000000 0.000000
vn 0.100000 0.000000 0.000000
vn 0.100000 0.000000 0.000000
vn 0.100000 0.000000 0.000000
vn 0.100000 0.000000 0.000000
vn 0.100000 0.000000 0.000000
vn 0.100000 0.000000 0.000000
vn 0.100000 0.000000 0.000000
vn -0.100000 0.000000 0.000000
vn -0.100000 0.000000 0.000000
vn -0.100000 0.000000 0.000000
vn -0.100000 0.000000 0.000000
vn -0.100000 0.000000 0.000000
vn -0.100000 0.000000 0.000000
vn -0.100000 0.000000 0.000000
vn -0.100000 0.000000 0.000000
usemtl Steel_-_Satin
f 1/1/1 2/2/2 4/3/3
f 4/3/3 2/2/2 3/4/4
f 5/5/5 6/6/6 8/7/7
f 8/7/7 6/6/6 7/8/8
f 9/9/9 10/10/10 8/11/11
f 8/11/11 10/10/10 3/12/12
f 8/11/11 3/12/12 2/13/13
f 10/10/10 11/14/14 3/12/12
f 3/12/12 11/14/14 12/15/15
f 2/13/13 5/16/16 8/11/11
f 8/17/17 7/18/18 9/19/19
f 9/19/19 7/18/18 13/20/20
f 4/21/21 3/22/22 14/23/23
f 14/23/23 3/22/22 12/24/24
f 16/25/25 5/26/26 15/27/27
f 15/27/27 5/26/26 2/28/28
f 15/27/27 2/28/28 18/29/29
f 18/29/29 2/28/28 17/30/30
f 17/30/30 2/28/28 1/31/31
f 17/30/30 1/31/31 16/25/25
f 16/25/25 1/31/31 6/32/32
f 16/25/25 6/32/32 5/26/26
f 14/33/33 19/34/34 4/35/35
f 4/35/35 19/34/34 20/36/36
f 4/35/35 20/36/36 7/37/37
f 7/37/37 20/36/36 13/38/38
f 7/37/37 6/39/39 4/35/35
f 4/35/35 6/39/39 1/40/40
f 10/41/41 20/42/42 11/43/43
f 11/43/43 20/42/42 19/44/44
f 21/45/45 15/46/46 22/47/47
f 22/47/47 15/46/46 18/48/48
f 23/49/49 21/50/50 24/51/51
f 24/51/51 21/50/50 22/52/52
f 16/53/53 23/54/54 17/55/55
f 17/55/55 23/54/54 24/56/56
f 10/57/57 23/58/58 20/59/59
f 20/59/59 23/58/58 16/60/60
f 20/59/59 16/60/60 13/61/61
f 13/61/61 16/60/60 9/62/62
f 9/62/62 16/60/60 15/63/63
f 9/62/62 15/63/63 10/57/57
f 10/57/57 15/63/63 21/64/64
f 10/57/57 21/64/64 23/58/58
f 19/65/65 24/66/66 11/67/67
f 11/67/67 24/66/66 22/68/68
f 11/67/67 22/68/68 18/69/69
f 24/66/66 19/65/65 17/70/70
f 17/70/70 19/65/65 14/71/71
f 17/70/70 14/71/71 12/72/72
f 17/70/70 12/72/72 18/69/69
f 18/69/69 12/72/72 11/67/67
g Body2

# 24 vertices
# 72 texture params
# 72 normals
# 52 facets

# 2 groups
